REM DIRINDEX 1\2,1\3
REM DIRNAME folder01,folder02,folder03
TITLE ""
FILE "Disk1Track05.mp3" MP3
  TRACK 01 AUDIO
    TITLE "2:cjc052_0031"
    INDEX 01 00:00:00
  TRACK 02 AUDIO
    TITLE "2:cjc052_0032"
    INDEX 01 00:02:49
  TRACK 03 AUDIO
    TITLE "2:cjc052_0033"
    INDEX 01 00:22:72
  TRACK 04 AUDIO
    TITLE "0:"
    INDEX 01 00:39:43
